<svg xmlns="http://www.w3.org/2000/svg" xmlns:xlink="http://www.w3.org/1999/xlink" viewBox="0 0 70 33"><defs><path id="a" d="M0 0h70v33H0z"/></defs><clipPath id="b"><use xlink:href="#a" overflow="visible"/></clipPath><g clip-path="url(#b)"><path d="M29.5 3.7c0-2-1.7-3.7-3.7-3.7h-41.6c-2 0-3.7 1.7-3.7 3.7s1.7 3.7 3.7 3.7h41.6c2.1 0 3.7-1.7 3.7-3.7" fill="#1d1d1d"/><path d="M49.8 16.5c0-2-1.7-3.7-3.7-3.7h-61.8c-2 0-3.7 1.7-3.7 3.7s1.7 3.7 3.7 3.7h61.8c2 0 3.7-1.7 3.7-3.7" fill="#e52521"/><path d="M70 29.3c0-2-1.7-3.7-3.7-3.7h-82.1c-2 0-3.7 1.7-3.7 3.7s1.7 3.7 3.7 3.7h82.1c2 0 3.7-1.7 3.7-3.7" fill="#ffcc07"/></g></svg>