<svg version="1.2" baseProfile="tiny" xmlns="http://www.w3.org/2000/svg" viewBox="0 0 289.83 74.22"><path fill="none" d="M2.43 1.61h284.6v70.3H2.43z"/><path fill="#000E52" d="M259.91 33.57h-.3V3h-7.96v53.1h7.96V40.78h.23l15.85 15.32h10.77l-19.8-19.27 19.65-17.14h-10.7l-15.7 13.88zM231.24 56.1h7.96V19.69h-7.96V56.1zm3.95-53.86c-3.19 0-5.54 2.5-5.54 5.61 0 3.19 2.35 5.54 5.54 5.54s5.61-2.35 5.61-5.54c0-3.1-2.43-5.61-5.61-5.61M207.65 26.9h13.96v-7.21h-13.96V8.77h-7.96v33.91c0 9.71 4.85 14.18 13.05 14.18 4.63 0 8.27-1.67 11.15-3.64l-3.11-6.37c-2.2 1.37-4.85 2.5-7.36 2.5-3.19 0-5.76-1.97-5.76-6.83V26.9zm-34.66 23.74c-5.99 0-7.96-2.43-7.96-4.78s1.67-4.55 7.13-5.08l10.01-.99v9.56c-2.2.76-5.62 1.29-9.18 1.29m.76-31.71c-4.93 0-10.32 1.06-15.4 4.25l2.96 6.45c3.26-1.9 7.89-3.64 12.14-3.64 5.54 0 8.72 2.12 8.72 6.98v.61l-9.03.91c-10.01.99-16.08 4.55-16.08 11.3 0 6.68 4.63 11.07 16.31 11.07 5.92 0 12.74-1.44 16.76-3.57V32.51c0-8.95-5.99-13.5-16.38-13.58m-39.9 0c-4.55 0-9.41 1.37-13.05 3.64-2.88-2.43-6.98-3.64-11.91-3.64-6.07 0-12.59 2.43-16.01 5.99V56.1h7.96l-.08-27c2.88-2.28 5.92-2.73 8.87-2.73 5.01 0 7.96 2.96 7.96 8.12V56.1h7.96V34.48c0-1.97-.23-3.72-.68-5.31 2.28-1.67 5.46-2.81 8.72-2.81 4.78 0 7.96 2.5 7.96 8.12V56.1h7.96V34.48c.04-10.32-5.95-15.55-15.66-15.55M57.69 34.25c.99-5.08 4.63-8.42 10.09-8.42 5.08 0 8.34 2.96 9.25 8.42H57.69zm27.46 3.04c0-11.15-7.05-18.36-17.22-18.36-10.7 0-18.58 7.51-18.58 18.66 0 12.06 8.19 19.27 19.12 19.27 5.46 0 10.47-1.37 14.94-5.08l-3.94-6.3c-3.03 3.11-6.9 4.55-10.54 4.55-5.31 0-10.77-2.65-11.45-9.79H85c.07-.9.15-1.97.15-2.95M40.09 24.92c-4.7-4.78-11.68-5.99-16.23-5.99C10.74 18.93 3 26.52 3 37.97 3 48.89 10.36 56.1 20.9 56.1c3.03 0 4.7-1.44 4.7-3.87 0-2.28-1.67-3.57-4.7-3.57-5.84 0-9.94-4.17-9.94-10.7 0-7.05 4.48-11.61 12.44-11.61 2.58 0 6.3.68 8.42 2.73l-.08 26.55c0 5.61-5.08 8.19-11.38 8.19-5.76 0-9.56-2.58-10.32-2.96-3.11-1.52-6.14-.08-6.14 2.88 0 5.01 9.1 7.51 16.54 7.51 11.07 0 19.65-4.85 19.65-15.63v-30.7z"/></svg>